<svg width="30" height="26" viewBox="0 0 30 26" fill="none" xmlns="http://www.w3.org/2000/svg">
<path id="Vector" d="M14.5484 17.5854C12.0542 17.5854 10.4839 16.0151 10.4839 13.5209C10.4839 11.0267 12.9574 8.55311 15.4516 8.55311C17.9458 8.55311 20.4194 10.3596 20.871 13.0693C21.3226 14.8757 20.4193 20.2952 15.4516 21.1984M13.4427 10.5566C13.4427 10.5566 14.0968 9.90795 15.4516 9.90795C16.8065 9.90795 19.5161 11.2628 19.0645 14.8757C18.1613 19.3918 14.0968 19.3918 14.0968 19.3918C11.1847 19.678 7.77421 16.8673 7.77421 13.5209C7.77421 9.03132 11.4137 5.39181 15.9032 5.39181C18.7977 5.39181 21.7142 6.90454 23.4213 9.18252C23.5053 9.29467 23.5864 9.40867 23.6644 9.52444M5.96776 7.64988C3.25806 13.9726 7.21237 20.771 13.1936 21.1983C13.4419 21.216 13.6833 21.224 13.9179 21.2228M29 10.8112C29 10.8112 26.7419 2.68228 17.7097 1.32729C13.5306 0.700344 9.7533 2.10191 7.38128 5.21019M1 18.0371C1 18.0371 7.11061 27.8924 17.7097 24.3596C21.7742 23.0049 24.9355 18.0104 24.9355 13.5209C24.9355 13.0593 24.8875 12.6067 24.7964 12.1661M6.87096 1.3274C6.78905 1.40915 6.41935 1.20253 6.41935 1.3274C6.41935 1.45226 6.76939 1.30509 6.8513 1.38684C6.933 1.46838 6.74641 1.77901 6.87096 1.77901C6.99551 1.77901 6.78926 1.40894 6.87096 1.3274ZM6.87096 1.3274C6.95266 1.24585 6.74641 0.875781 6.87096 0.875781C6.99551 0.875781 6.78926 1.24585 6.87096 1.3274ZM6.87096 1.3274C6.95287 1.40915 7.32258 1.20253 7.32258 1.3274C7.32258 1.45226 6.95287 1.24564 6.87096 1.3274ZM21.3226 4.94031C21.2407 5.02206 20.871 4.81544 20.871 4.94031C20.871 5.06517 21.221 4.918 21.3029 4.99975C21.3846 5.0813 21.198 5.39192 21.3226 5.39192C21.4471 5.39192 21.2409 5.02185 21.3226 4.94031ZM21.3226 4.94031C21.4043 4.85876 21.198 4.48869 21.3226 4.48869C21.4471 4.48869 21.2409 4.85876 21.3226 4.94031ZM21.3226 4.94031C21.4045 5.02206 21.7742 4.81544 21.7742 4.94031C21.7742 5.06517 21.4045 4.85856 21.3226 4.94031ZM5.06451 18.4887C4.9826 18.5705 4.6129 18.3639 4.6129 18.4887C4.6129 18.6136 4.96294 18.4664 5.04485 18.5482C5.12655 18.6297 4.93996 18.9403 5.06451 18.9403C5.18906 18.9403 4.98281 18.5703 5.06451 18.4887ZM5.06451 18.4887C5.14621 18.4072 4.93996 18.0371 5.06451 18.0371C5.18906 18.0371 4.98281 18.4072 5.06451 18.4887ZM5.06451 18.4887C5.14642 18.5705 5.51613 18.3639 5.51613 18.4887C5.51613 18.6136 5.14642 18.407 5.06451 18.4887ZM23.129 23.9081C23.0471 23.9898 22.6774 23.7832 22.6774 23.9081C22.6774 24.033 23.0274 23.8858 23.1094 23.9675C23.1911 24.0491 23.0045 24.3597 23.129 24.3597C23.2536 24.3597 23.0473 23.9896 23.129 23.9081ZM23.129 23.9081C23.2107 23.8266 23.0045 23.4565 23.129 23.4565C23.2536 23.4565 23.0473 23.8266 23.129 23.9081ZM23.129 23.9081C23.2109 23.9898 23.5806 23.7832 23.5806 23.9081C23.5806 24.033 23.2109 23.8263 23.129 23.9081ZM17.2581 13.7468C17.2581 14.8692 16.3482 15.779 15.2258 15.779C14.1034 15.779 13.1935 14.8692 13.1935 13.7468C13.1935 12.6244 14.1034 11.7145 15.2258 11.7145C16.3482 11.7145 17.2581 12.6244 17.2581 13.7468ZM26.2903 10.8113C26.2903 11.809 25.4815 12.6177 24.4839 12.6177C23.4862 12.6177 22.6774 11.809 22.6774 10.8113C22.6774 9.81361 23.4862 9.00483 24.4839 9.00483C25.4815 9.00483 26.2903 9.81361 26.2903 10.8113ZM8.2258 6.29515C8.2258 7.29283 7.41703 8.1016 6.41935 8.1016C5.42168 8.1016 4.6129 7.29283 4.6129 6.29515C4.6129 5.29747 5.42168 4.48869 6.41935 4.48869C7.41703 4.48869 8.2258 5.29747 8.2258 6.29515ZM15.4516 21.65C15.4516 22.1489 15.0472 22.5533 14.5484 22.5533C14.0495 22.5533 13.6452 22.1489 13.6452 21.65C13.6452 21.1512 14.0495 20.7468 14.5484 20.7468C15.0472 20.7468 15.4516 21.1512 15.4516 21.65Z" stroke="white" stroke-width="0.903226"/>
</svg>
