<svg width="183.693" height="146.099" viewBox="0 0 183.693 146.099" xmlns="http://www.w3.org/2000/svg"><g id="svgGroup" stroke-linecap="round" fill-rule="evenodd" font-size="9pt" stroke="#000" stroke-width="0.25mm" fill="#000" style="stroke:#000;stroke-width:0.25mm;fill:#000"><path d="M 183.693 1.76 L 183.693 144.143 L 155.47 144.143 L 155.47 35.354 L 121.779 45.803 L 121.779 22.854 L 180.666 1.76 L 183.693 1.76 Z M 96.095 59.182 L 96.095 85.354 A 114.182 114.182 0 0 1 94.903 102.432 Q 93.592 111.081 90.838 118.09 A 49.157 49.157 0 0 1 83.888 130.471 Q 71.681 146.096 48.146 146.096 A 56.141 56.141 0 0 1 33.46 144.285 A 39.143 39.143 0 0 1 12.599 130.764 Q 2.907 118.688 0.668 98.372 A 116.412 116.412 0 0 1 0.002 86.819 L 0.002 60.647 A 115.051 115.051 0 0 1 1.148 43.829 Q 3.766 26.161 12.355 15.432 A 40.043 40.043 0 0 1 37.654 0.85 A 59.785 59.785 0 0 1 47.951 0.002 A 56.31 56.31 0 0 1 62.637 1.808 A 39.154 39.154 0 0 1 83.498 15.286 Q 95.802 30.569 96.095 59.182 Z M 67.873 90.432 L 67.873 56.643 A 102.647 102.647 0 0 0 67.511 47.696 Q 66.757 39.113 64.43 33.66 A 22.523 22.523 0 0 0 63.039 30.911 A 15.697 15.697 0 0 0 51.749 23.161 A 22.511 22.511 0 0 0 47.951 22.854 A 20.313 20.313 0 0 0 41.848 23.719 A 15.225 15.225 0 0 0 33.254 30.52 Q 28.965 37.462 28.319 51.49 A 107.351 107.351 0 0 0 28.224 54.495 L 28.224 89.065 Q 28.224 106.448 32.961 114.895 A 16.128 16.128 0 0 0 38.541 120.888 Q 41.582 122.767 45.597 123.208 A 23.373 23.373 0 0 0 48.146 123.342 A 20.634 20.634 0 0 0 54.186 122.511 A 14.984 14.984 0 0 0 63.088 115.237 Q 67.244 107.897 67.797 93.511 A 115.339 115.339 0 0 0 67.873 90.432 Z" vector-effect="non-scaling-stroke"/></g></svg>